<svg width="371" height="271" viewBox="0 0 371 271" fill="none" xmlns="http://www.w3.org/2000/svg">
<g clip-path="url(#clip0_13_237)">
<path d="M96.0717 54.4878C60.6785 37.4421 33.857 99.1722 70.2506 108.476C85.1914 113.239 121.94 93.4147 121.931 113.488L122.618 139.879C122.621 139.989 122.525 140.074 122.416 140.06L117.691 139.41C117.643 139.403 117.595 139.416 117.558 139.445C114.561 141.695 115.058 143.793 117.657 145.799C117.685 145.82 117.72 145.833 117.754 145.836C118.198 145.868 121.269 146.098 122.06 146.158C122.162 146.165 122.235 146.256 122.224 146.357L121.443 153.151C121.432 153.25 121.505 153.34 121.606 153.349L133.929 154.418C134.023 154.427 134.108 154.36 134.121 154.265L134.843 148.989C134.857 148.894 134.942 148.825 135.039 148.838L140.515 149.433C140.564 149.439 140.614 149.423 140.653 149.39C142.472 147.828 142.753 146.058 141.305 144.054C141.276 144.013 141.231 143.987 141.182 143.979L135.357 143.186C135.27 143.174 135.203 143.099 135.203 143.011L134.812 111.307C134.748 106.162 133.194 101.119 130.227 96.9012C126.534 91.6532 121.842 89.1349 116.619 88.0651C116.234 88.0583 97.3567 91.0799 96.9715 91.0731L97.8778 90.9115C97.8656 90.913 88.3568 92.608 88.3445 92.6094C74.6209 93.9709 67.433 80.7055 74.218 71.0567C76.8789 67.2738 81.1827 65.0095 85.8063 64.6809C91.1086 64.3021 94.8873 65.6554 98.0196 67.7398C98.0245 67.7429 98.0295 67.7459 98.0344 67.749C100.906 69.1733 104.695 72.2135 106.277 76.7012C108.57 83.2121 107.911 71.8478 104.66 67.0505C104.545 66.8794 104.758 66.6822 104.919 66.812C108.663 69.8083 110.971 72.6375 112.314 75.1273C112.398 75.2834 112.631 75.2337 112.646 75.0586C113.059 70.0218 111.139 65.6334 107.003 62.0368C111.094 65.5103 113.941 68.67 114.893 70.9552C114.964 71.1255 115.213 71.0928 115.234 70.9095C116.211 62.5623 97.8754 55.3572 96.0717 54.4878Z" fill="#F4F0DC" stroke="black" stroke-miterlimit="10"/>
<path d="M120.488 167.756L134.55 168.228L135.319 142.949L121.257 142.478L120.488 167.756Z" fill="#2A4B9B" stroke="black" stroke-miterlimit="10"/>
<path d="M139.834 142.675L119.248 139.301C114.046 138.731 113.714 145.545 118.137 146.112L138.853 149.543C142.597 150.59 145.355 143.679 139.834 142.675Z" fill="#FCE301" stroke="black" stroke-miterlimit="10"/>
</g>
<path d="M63.6357 169.544V201.472H66.9117V205.008H56.1997V201.472H59.3717V186.6H44.9157V201.472H48.0877V205.008H37.3757V201.472H40.6517V169.544H37.3757V166.008H48.0877V169.544H44.9157V183.116H59.3717V169.544H56.1997V166.008H66.9117V169.544H63.6357ZM77.2203 205.008C75.4523 205.008 74.2043 204.609 73.4763 203.812C72.7483 202.98 72.3843 201.836 72.3843 200.38V183.636C72.3843 182.249 72.6963 181.14 73.3203 180.308C73.9789 179.441 75.2789 179.008 77.2203 179.008H86.8403C88.7469 179.008 90.0296 179.441 90.6883 180.308C91.3469 181.14 91.6763 182.249 91.6763 183.636V200.38C91.6763 201.836 91.3123 202.98 90.5843 203.812C89.8563 204.609 88.6083 205.008 86.8403 205.008H77.2203ZM76.5963 201.472H87.4643V182.544H76.5963V201.472ZM100.681 205.008C98.9132 205.008 97.6652 204.609 96.9372 203.812C96.2092 202.98 95.8452 201.836 95.8452 200.38V183.636C95.8452 182.249 96.1572 181.14 96.7812 180.308C97.4399 179.441 98.7399 179.008 100.681 179.008H110.301C112.208 179.008 113.491 179.441 114.149 180.308C114.808 181.14 115.137 182.249 115.137 183.636V200.38C115.137 201.836 114.773 202.98 114.045 203.812C113.317 204.609 112.069 205.008 110.301 205.008H100.681ZM100.057 201.472H110.925V182.544H100.057V201.472ZM122.499 201.472H125.775V169.544H119.223V175.68H115.479V166.008H140.387V175.68H136.591V169.544H130.039V201.472H133.419V205.008H122.499V201.472ZM145.673 205.008C143.905 205.008 142.657 204.609 141.929 203.812C141.201 202.98 140.837 201.836 140.837 200.38V183.636C140.837 182.249 141.149 181.14 141.773 180.308C142.432 179.441 143.732 179.008 145.673 179.008H155.293C157.2 179.008 158.483 179.441 159.141 180.308C159.8 181.14 160.129 182.249 160.129 183.636V200.38C160.129 201.836 159.765 202.98 159.037 203.812C158.309 204.609 157.061 205.008 155.293 205.008H145.673ZM145.049 201.472H155.917V182.544H145.049V201.472ZM171.682 205.112C168.978 205.112 167.626 203.777 167.626 201.108V182.492H164.298V178.956H171.838V201.472L182.186 194.972V182.492H179.638V178.956H186.398V201.472H189.674V205.008H182.186V199.184L173.554 204.592C173 204.938 172.376 205.112 171.682 205.112ZM209.609 179.008C212.313 179.008 213.665 180.342 213.665 183.012V187.64H209.453V182.596L201.341 187.744V201.472H203.889V205.008H193.853V201.472H197.129V182.492H193.853V178.956H201.341V183.532L207.737 179.528C208.292 179.181 208.916 179.008 209.609 179.008Z" fill="white"/>
<defs>
<clipPath id="clip0_13_237">
<rect width="114.098" height="161.945" fill="white" transform="translate(197.767 85.4268) rotate(121.833)"/>
</clipPath>
</defs>
</svg>
