<svg width="268" height="241" viewBox="0 0 268 241" fill="none" xmlns="http://www.w3.org/2000/svg">
<g clip-path="url(#clip0_11_195)">
<path d="M96.0717 54.4781C60.6784 37.4324 33.8569 99.1624 70.2505 108.466C85.1913 113.23 121.94 93.405 121.931 113.478L122.618 139.869C122.621 139.979 122.525 140.064 122.416 140.05L117.691 139.4C117.643 139.393 117.594 139.406 117.558 139.435C114.561 141.685 115.058 143.783 117.657 145.789C117.685 145.81 117.72 145.823 117.754 145.826C118.198 145.859 121.268 146.088 122.06 146.149C122.162 146.156 122.235 146.246 122.224 146.347L121.443 153.141C121.432 153.24 121.505 153.33 121.606 153.339L133.929 154.408C134.023 154.417 134.108 154.35 134.121 154.255L134.843 148.979C134.857 148.884 134.942 148.815 135.039 148.828L140.515 149.423C140.564 149.429 140.614 149.413 140.653 149.38C142.472 147.818 142.753 146.048 141.305 144.044C141.276 144.003 141.231 143.977 141.182 143.969L135.357 143.176C135.27 143.164 135.203 143.089 135.203 143.001L134.812 111.298C134.748 106.152 133.194 101.109 130.227 96.8914C126.534 91.6434 121.842 89.1251 116.619 88.0553C116.234 88.0486 97.3567 91.0701 96.9714 91.0633L97.8778 90.9018C97.8655 90.9032 88.3567 92.5982 88.3445 92.5997C74.6208 93.9612 67.433 80.6957 74.2179 71.0469C76.8788 67.2641 81.1826 64.9998 85.8063 64.6711C91.1086 64.2924 94.8873 65.6456 98.0196 67.7301C98.0245 67.7331 98.0294 67.7362 98.0343 67.7392C100.906 69.1635 104.695 72.2037 106.276 76.6914C108.569 83.2023 107.911 71.838 104.66 67.0407C104.545 66.8696 104.758 66.6725 104.919 66.8022C108.663 69.7986 110.971 72.6277 112.314 75.1176C112.398 75.2737 112.631 75.2239 112.646 75.0488C113.059 70.012 111.139 65.6237 107.003 62.0271C111.093 65.5005 113.941 68.6602 114.893 70.9454C114.964 71.1157 115.213 71.083 115.234 70.8998C116.211 62.5525 97.8753 55.3474 96.0717 54.4781Z" fill="#F4F0DC" stroke="black" stroke-miterlimit="10"/>
<path d="M120.488 167.746L134.55 168.217L135.319 142.939L121.257 142.467L120.488 167.746Z" fill="#2A4B9B" stroke="black" stroke-miterlimit="10"/>
<path d="M139.833 142.666L119.248 139.291C114.046 138.721 113.714 145.536 118.137 146.103L138.853 149.533C142.597 150.581 145.355 143.67 139.833 142.666Z" fill="#FCE301" stroke="black" stroke-miterlimit="10"/>
</g>
<path d="M59.6357 139.713V171.641H62.9117V175.177H52.1997V171.641H55.3717V156.769H40.9157V171.641H44.0877V175.177H33.3757V171.641H36.6517V139.713H33.3757V136.177H44.0877V139.713H40.9157V153.285H55.3717V139.713H52.1997V136.177H62.9117V139.713H59.6357ZM73.2203 175.177C71.4523 175.177 70.2043 174.778 69.4763 173.981C68.7483 173.149 68.3843 172.005 68.3843 170.549V153.805C68.3843 152.418 68.6963 151.309 69.3203 150.477C69.979 149.61 71.279 149.177 73.2203 149.177H82.8403C84.747 149.177 86.0297 149.61 86.6883 150.477C87.347 151.309 87.6763 152.418 87.6763 153.805V170.549C87.6763 172.005 87.3123 173.149 86.5843 173.981C85.8563 174.778 84.6083 175.177 82.8403 175.177H73.2203ZM72.5963 171.641H83.4643V152.713H72.5963V171.641ZM96.6813 175.177C94.9133 175.177 93.6653 174.778 92.9373 173.981C92.2093 173.149 91.8453 172.005 91.8453 170.549V153.805C91.8453 152.418 92.1573 151.309 92.7813 150.477C93.4399 149.61 94.7399 149.177 96.6813 149.177H106.301C108.208 149.177 109.491 149.61 110.149 150.477C110.808 151.309 111.137 152.418 111.137 153.805V170.549C111.137 172.005 110.773 173.149 110.045 173.981C109.317 174.778 108.069 175.177 106.301 175.177H96.6813ZM96.0573 171.641H106.925V152.713H96.0573V171.641ZM118.499 171.641H121.775V139.713H115.223V145.849H111.479V136.177H136.387V145.849H132.591V139.713H126.039V171.641H129.419V175.177H118.499V171.641ZM141.673 175.177C139.905 175.177 138.657 174.778 137.929 173.981C137.201 173.149 136.837 172.005 136.837 170.549V153.805C136.837 152.418 137.149 151.309 137.773 150.477C138.432 149.61 139.732 149.177 141.673 149.177H151.293C153.2 149.177 154.483 149.61 155.141 150.477C155.8 151.309 156.129 152.418 156.129 153.805V170.549C156.129 172.005 155.765 173.149 155.037 173.981C154.309 174.778 153.061 175.177 151.293 175.177H141.673ZM141.049 171.641H151.917V152.713H141.049V171.641ZM167.682 175.281C164.978 175.281 163.626 173.946 163.626 171.277V152.661H160.298V149.125H167.838V171.641L178.186 165.141V152.661H175.638V149.125H182.398V171.641H185.674V175.177H178.186V169.353L169.554 174.761C169 175.107 168.376 175.281 167.682 175.281ZM205.609 149.177C208.313 149.177 209.665 150.511 209.665 153.181V157.809H205.453V152.765L197.341 157.913V171.641H199.889V175.177H189.853V171.641H193.129V152.661H189.853V149.125H197.341V153.701L203.737 149.697C204.292 149.35 204.916 149.177 205.609 149.177Z" fill="white"/>
<defs>
<clipPath id="clip0_11_195">
<rect width="114.098" height="161.945" fill="white" transform="translate(197.767 85.417) rotate(121.833)"/>
</clipPath>
</defs>
</svg>
