<svg width="152" height="117" viewBox="0 0 152 117" fill="none" xmlns="http://www.w3.org/2000/svg">
<ellipse cx="54.2651" cy="42.735" rx="40.7349" ry="33.8346" fill="#3169BD"/>
<g clip-path="url(#clip0_9_45)">
<path d="M46.3992 24.6098C30.4107 16.9096 18.2944 44.7954 34.7348 48.9982C41.4841 51.1501 58.085 42.1946 58.0809 51.2623L58.3913 63.1843C58.3923 63.2338 58.349 63.2722 58.2997 63.266L56.1654 62.9724C56.1438 62.9692 56.1218 62.9749 56.1054 62.9882C54.7514 64.0044 54.9762 64.9521 56.1503 65.8584C56.1626 65.8681 56.1785 65.8738 56.194 65.8753C56.3946 65.8898 57.7815 65.9936 58.139 66.0209C58.1851 66.024 58.218 66.0648 58.2131 66.1107L57.8605 69.1795C57.8553 69.2242 57.8882 69.265 57.9339 69.2689L63.5007 69.7521C63.5432 69.7561 63.5814 69.7258 63.5877 69.6828L63.9135 67.2995C63.9198 67.2565 63.9585 67.2255 64.002 67.2311L66.4758 67.5002C66.4979 67.5026 66.5207 67.4954 66.5381 67.4807C67.3597 66.775 67.4869 65.9754 66.8329 65.07C66.8197 65.0517 66.7993 65.04 66.777 65.0364L64.146 64.6779C64.1063 64.6726 64.0762 64.6387 64.0763 64.599L63.8994 50.2773C63.8706 47.9531 63.1688 45.6748 61.8284 43.7695C60.1602 41.3988 58.0405 40.2612 55.6812 39.7779C55.5072 39.7749 46.9797 41.1398 46.8056 41.1368L47.2151 41.0638C47.2095 41.0644 42.914 41.8301 42.9085 41.8308C36.709 42.4458 33.462 36.4533 36.527 32.0946C37.729 30.3857 39.6732 29.3629 41.7619 29.2144C44.1572 29.0433 45.8641 29.6546 47.2791 30.5963C47.2813 30.5976 47.2835 30.599 47.2858 30.6004C48.5831 31.2438 50.2947 32.6172 51.0091 34.6444C52.0449 37.5856 51.7473 32.452 50.279 30.2848C50.2267 30.2076 50.323 30.1185 50.396 30.1771C52.0871 31.5307 53.1296 32.8087 53.7364 33.9335C53.7745 34.004 53.8794 33.9815 53.8866 33.9024C54.0728 31.6271 53.2058 29.6447 51.3373 28.02C53.1851 29.5891 54.4714 31.0164 54.9014 32.0487C54.9334 32.1257 55.0458 32.1109 55.0553 32.0281C55.497 28.2574 47.214 25.0025 46.3992 24.6098Z" fill="#F4F0DC" stroke="black" stroke-miterlimit="10"/>
<path d="M57.4288 75.777L63.781 75.9901L64.1286 64.5709L57.7763 64.3578L57.4288 75.777Z" fill="#2A4B9B" stroke="black" stroke-miterlimit="10"/>
<path d="M66.168 64.4473L56.869 62.9231C54.5189 62.6656 54.3689 65.7441 56.3671 66.0001L65.725 67.5497C67.4165 68.023 68.6621 64.9012 66.168 64.4473Z" fill="#FCE301" stroke="black" stroke-miterlimit="10"/>
</g>
<path d="M22.8 75.72V100.28H25.32V103H17.08V100.28H19.52V88.84H8.4V100.28H10.84V103H2.6V100.28H5.12V75.72H2.6V73H10.84V75.72H8.4V86.16H19.52V75.72H17.08V73H25.32V75.72H22.8ZM33.2497 103C31.8897 103 30.9297 102.693 30.3697 102.08C29.8097 101.44 29.5297 100.56 29.5297 99.44V86.56C29.5297 85.4933 29.7697 84.64 30.2497 84C30.7564 83.3333 31.7564 83 33.2497 83H40.6497C42.1164 83 43.103 83.3333 43.6097 84C44.1164 84.64 44.3697 85.4933 44.3697 86.56V99.44C44.3697 100.56 44.0897 101.44 43.5297 102.08C42.9697 102.693 42.0097 103 40.6497 103H33.2497ZM32.7697 100.28H41.1297V85.72H32.7697V100.28ZM51.2966 103C49.9366 103 48.9766 102.693 48.4166 102.08C47.8566 101.44 47.5766 100.56 47.5766 99.44V86.56C47.5766 85.4933 47.8166 84.64 48.2966 84C48.8032 83.3333 49.8032 83 51.2966 83H58.6966C60.1632 83 61.1499 83.3333 61.6566 84C62.1632 84.64 62.4166 85.4933 62.4166 86.56V99.44C62.4166 100.56 62.1366 101.44 61.5766 102.08C61.0166 102.693 60.0566 103 58.6966 103H51.2966ZM50.8166 100.28H59.1766V85.72H50.8166V100.28ZM68.0797 100.28H70.5997V75.72H65.5597V80.44H62.6797V73H81.8397V80.44H78.9197V75.72H73.8797V100.28H76.4797V103H68.0797V100.28ZM85.9059 103C84.5459 103 83.5859 102.693 83.0259 102.08C82.4659 101.44 82.1859 100.56 82.1859 99.44V86.56C82.1859 85.4933 82.4259 84.64 82.9059 84C83.4126 83.3333 84.4126 83 85.9059 83H93.3059C94.7726 83 95.7593 83.3333 96.2659 84C96.7726 84.64 97.0259 85.4933 97.0259 86.56V99.44C97.0259 100.56 96.7459 101.44 96.1859 102.08C95.6259 102.693 94.6659 103 93.3059 103H85.9059ZM85.4259 100.28H93.7859V85.72H85.4259V100.28ZM105.913 103.08C103.833 103.08 102.793 102.053 102.793 100V85.68H100.233V82.96H106.033V100.28L113.993 95.28V85.68H112.033V82.96H117.233V100.28H119.753V103H113.993V98.52L107.353 102.68C106.926 102.947 106.446 103.08 105.913 103.08ZM135.087 83C137.167 83 138.207 84.0267 138.207 86.08V89.64H134.967V85.76L128.727 89.72V100.28H130.687V103H122.967V100.28H125.487V85.68H122.967V82.96H128.727V86.48L133.647 83.4C134.074 83.1333 134.554 83 135.087 83Z" fill="white"/>
<defs>
<clipPath id="clip0_9_45">
<rect width="51.5422" height="73.1566" fill="white" transform="translate(92.3387 38.586) rotate(121.833)"/>
</clipPath>
</defs>
</svg>
