<svg width="37" height="37" viewBox="0 0 37 37" fill="none" xmlns="http://www.w3.org/2000/svg">
<path d="M18.5013 18.7281C23.6627 18.7281 27.846 14.544 27.846 9.38167C27.8459 4.21937 23.6627 0.0361328 18.5013 0.0361328C13.3381 0.0361328 9.1531 4.21937 9.1531 9.38167C9.15303 14.544 13.3381 18.7281 18.5013 18.7281ZM18.5013 4.7837C21.0401 4.7837 23.0983 6.84197 23.0983 9.3816C23.0983 11.9213 21.0401 13.9795 18.5013 13.9795C15.9599 13.9795 13.9025 11.9213 13.9025 9.3816C13.9025 6.84197 15.9598 4.7837 18.5013 4.7837ZM29.273 19.8686C28.7466 18.8084 27.2851 17.9266 25.3422 19.4566C22.716 21.5248 18.5012 21.5248 18.5012 21.5248C18.5012 21.5248 14.2837 21.5248 11.6575 19.4566C9.71555 17.9266 8.25506 18.8084 7.72766 19.8686C6.80628 21.7159 7.84575 22.6093 10.1916 24.115C12.1949 25.4015 14.9482 25.882 16.7252 26.0614L15.2413 27.5454C13.1515 29.6343 11.1347 31.6529 9.73455 33.053C8.89699 33.8896 8.89699 35.2466 9.73455 36.0832L9.98604 36.3365C10.8236 37.1732 12.1796 37.1732 13.0171 36.3365L18.5238 30.8289C20.6154 32.9187 22.6322 34.9364 24.0322 36.3365C24.8698 37.1732 26.2258 37.1732 27.0633 36.3365L27.3148 36.0832C28.1523 35.2456 28.1523 33.8896 27.3148 33.0521L21.808 27.5455L20.3205 26.057C22.0993 25.873 24.822 25.3907 26.809 24.115C29.1549 22.6092 30.1927 21.7158 29.273 19.8686Z" fill="white"/>
</svg>
