<svg width="75" height="75" viewBox="0 0 75 75" fill="none" xmlns="http://www.w3.org/2000/svg">
<path d="M37.5027 37.9623C47.965 37.9623 56.4445 29.481 56.4445 19.0169C56.4444 8.55278 47.9649 0.0732422 37.5027 0.0732422C27.0366 0.0732422 18.5536 8.55278 18.5536 19.0169C18.5534 29.481 27.0366 37.9623 37.5027 37.9623ZM37.5027 9.69668C42.6488 9.69668 46.8208 13.8688 46.8208 19.0168C46.8208 24.1648 42.6488 28.3368 37.5027 28.3368C32.3511 28.3368 28.1807 24.1648 28.1807 19.0168C28.1807 13.8688 32.3509 9.69668 37.5027 9.69668ZM59.3372 40.2741C58.27 38.125 55.3077 36.3378 51.3693 39.439C46.0459 43.6313 37.5025 43.6313 37.5025 43.6313C37.5025 43.6313 28.9535 43.6313 23.6301 39.439C19.6937 36.3378 16.7332 38.125 15.6642 40.2741C13.7965 44.0187 15.9035 45.8297 20.6587 48.8817C24.7194 51.4896 30.3005 52.4635 33.9025 52.8273L30.8945 55.8353C26.6584 60.0694 22.5703 64.1612 19.7322 66.9993C18.0344 68.6952 18.0344 71.4457 19.7322 73.1416L20.242 73.6551C21.9397 75.351 24.6883 75.351 26.386 73.6551L37.5482 62.491C41.7879 66.7272 45.876 70.817 48.714 73.6551C50.4117 75.351 53.1604 75.351 54.858 73.6551L55.3677 73.1416C57.0655 71.4438 57.0655 68.6952 55.3677 66.9976L44.2055 55.8355L41.1902 52.8182C44.7958 52.4454 50.3148 51.4676 54.3425 48.8818C59.0978 45.8295 61.2013 44.0186 59.3372 40.2741Z" fill="black"/>
</svg>
