<svg width="37" height="37" viewBox="0 0 37 37" fill="none" xmlns="http://www.w3.org/2000/svg">
<g clip-path="url(#clip0_15_47)">
<path d="M29.8051 22.612C28.6394 22.613 27.4915 22.8975 26.4604 23.4411C25.4293 23.9848 24.546 24.7711 23.8866 25.7323L13.8519 21.2014C14.5646 19.4803 14.5674 17.5471 13.8596 15.824L23.8804 11.27C24.8577 12.6833 26.3091 13.6996 27.9714 14.1345C29.6337 14.5693 31.3969 14.394 32.941 13.6403C34.4851 12.8866 35.708 11.6043 36.3877 10.0262C37.0675 8.44815 37.1591 6.67868 36.646 5.03882C36.1329 3.39895 35.049 1.9973 33.591 1.08811C32.133 0.178928 30.3974 -0.177569 28.699 0.0832863C27.0006 0.344142 25.452 1.20507 24.3341 2.50991C23.2161 3.81475 22.6028 5.47707 22.6055 7.19534C22.612 7.60203 22.6533 8.00742 22.7288 8.40709L12.0759 13.2479C11.0528 12.2893 9.7719 11.6505 8.39066 11.4099C7.00943 11.1693 5.588 11.3374 4.30098 11.8935C3.01397 12.4496 1.91744 13.3696 1.1461 14.5404C0.374757 15.7112 -0.0377957 17.0818 -0.0408762 18.4838C-0.0439567 19.8858 0.362569 21.2582 1.12876 22.4324C1.89495 23.6065 2.98743 24.5313 4.27198 25.0931C5.55654 25.6549 6.97722 25.8292 8.3595 25.5947C9.74177 25.3602 11.0254 24.727 12.0528 23.7729L22.7334 28.5952C22.6593 28.9945 22.6185 29.3993 22.6117 29.8054C22.6113 31.2286 23.0331 32.6199 23.8236 33.8033C24.6141 34.9867 25.7377 35.9092 27.0525 36.4539C28.3673 36.9987 29.8141 37.1413 31.2099 36.8637C32.6057 36.5862 33.8879 35.9009 34.8942 34.8946C35.9005 33.8882 36.5858 32.6061 36.8634 31.2103C37.141 29.8144 36.9984 28.3676 36.4536 27.0529C35.9088 25.7381 34.9864 24.6144 33.803 23.8239C32.6195 23.0335 31.2282 22.6117 29.8051 22.612ZM29.8051 3.08371C30.6183 3.08341 31.4134 3.32429 32.0898 3.7759C32.7661 4.2275 33.2934 4.86955 33.6048 5.62082C33.9163 6.37209 33.9979 7.19885 33.8394 7.99653C33.681 8.79421 33.2895 9.52698 32.7145 10.1022C32.1396 10.6773 31.4069 11.0691 30.6093 11.2278C29.8117 11.3866 28.9849 11.3053 28.2335 10.9941C27.4821 10.683 26.8399 10.156 26.388 9.4798C25.9362 8.80361 25.695 8.00861 25.695 7.19534C25.6958 6.10539 26.129 5.06029 26.8996 4.28943C27.6702 3.51857 28.7151 3.08494 29.8051 3.08371ZM7.19499 22.612C6.38172 22.6123 5.58663 22.3714 4.91027 21.9198C4.23391 21.4682 3.70668 20.8262 3.39524 20.0749C3.08381 19.3236 3.00216 18.4969 3.16064 17.6992C3.31911 16.9015 3.71058 16.1687 4.28554 15.5936C4.8605 15.0184 5.59312 14.6266 6.39074 14.4679C7.18836 14.3091 8.01515 14.3904 8.76654 14.7016C9.51793 15.0127 10.1602 15.5397 10.612 16.2159C11.0639 16.8921 11.3051 17.6871 11.3051 18.5004C11.3038 19.5902 10.8705 20.6351 10.1 21.4058C9.32952 22.1766 8.28481 22.6104 7.19499 22.612ZM29.8051 33.917C28.9919 33.917 28.1969 33.6759 27.5208 33.2241C26.8446 32.7723 26.3176 32.1302 26.0064 31.3789C25.6952 30.6276 25.6138 29.8009 25.7724 29.0033C25.9311 28.2057 26.3227 27.4731 26.8977 26.8981C27.4727 26.323 28.2054 25.9314 29.0029 25.7728C29.8005 25.6142 30.6272 25.6956 31.3785 26.0068C32.1298 26.318 32.772 26.845 33.2238 27.5211C33.6756 28.1973 33.9167 28.9922 33.9167 29.8054C33.9159 30.8956 33.4824 31.941 32.7115 32.7119C31.9406 33.4828 30.8953 33.9162 29.8051 33.917Z" fill="white"/>
</g>
<defs>
<clipPath id="clip0_15_47">
<rect width="37" height="37" fill="white"/>
</clipPath>
</defs>
</svg>
