<svg width="75" height="75" viewBox="0 0 75 75" fill="none" xmlns="http://www.w3.org/2000/svg">
<g clip-path="url(#clip0_13_228)">
<path d="M60.4156 45.8342C58.0529 45.8361 55.726 46.4129 53.6359 47.5149C51.5459 48.6168 49.7553 50.2107 48.4188 52.1592L28.0781 42.9748C29.5228 39.4861 29.5285 35.5676 28.0938 32.0748L48.4062 22.8435C50.3871 25.7084 53.3291 27.7684 56.6987 28.6499C60.0683 29.5314 63.6423 29.1761 66.7723 27.6482C69.9023 26.1204 72.381 23.5214 73.7589 20.3225C75.1368 17.1237 75.3225 13.5369 74.2824 10.2128C73.2423 6.88878 71.0452 4.0476 68.0898 2.20466C65.1343 0.361715 61.6162 -0.360914 58.1736 0.167847C54.731 0.696608 51.5919 2.44174 49.3257 5.08668C47.0596 7.73162 45.8165 11.1012 45.8219 14.5842C45.8351 15.4085 45.9188 16.2303 46.0719 17.0404L24.4781 26.8529C22.4042 24.9099 19.8078 23.6149 17.008 23.1272C14.2083 22.6394 11.327 22.9802 8.71816 24.1075C6.10935 25.2348 3.88664 27.0996 2.32312 29.4728C0.759587 31.846 -0.0766673 34.6242 -0.0829116 37.4662C-0.0891558 40.3081 0.734882 43.09 2.28797 45.4701C3.84105 47.8501 6.05554 49.7247 8.65937 50.8635C11.2632 52.0022 14.143 52.3556 16.9449 51.8802C19.7468 51.4048 22.3488 50.1212 24.4313 48.1873L46.0813 57.9623C45.9309 58.7717 45.8483 59.5923 45.8344 60.4154C45.8338 63.3002 46.6887 66.1204 48.291 68.5192C49.8933 70.9181 52.171 72.7879 54.8361 73.8922C57.5012 74.9964 60.4339 75.2855 63.2633 74.7228C66.0926 74.1602 68.6916 72.7711 70.7315 70.7313C72.7713 68.6914 74.1604 66.0924 74.723 63.2631C75.2857 60.4337 74.9966 57.501 73.8924 54.8359C72.7881 52.1708 70.9183 49.8931 68.5194 48.2908C66.1206 46.6885 63.3004 45.8336 60.4156 45.8342ZM60.4156 6.2498C62.0641 6.24918 63.6758 6.73746 65.0468 7.65287C66.4178 8.56829 67.4865 9.86973 68.1178 11.3926C68.7491 12.9154 68.9146 14.5913 68.5934 16.2082C68.2721 17.8251 67.4786 19.3105 66.3132 20.4764C65.1477 21.6423 63.6627 22.4363 62.0459 22.7582C60.4291 23.08 58.7531 22.9151 57.23 22.2844C55.707 21.6537 54.4051 20.5855 53.4892 19.2148C52.5733 17.8442 52.0844 16.2327 52.0844 14.5842C52.086 12.3748 52.9642 10.2564 54.5262 8.69381C56.0882 7.13126 58.2063 6.25228 60.4156 6.2498ZM14.5844 45.8342C12.9359 45.8348 11.3242 45.3465 9.9532 44.4311C8.5822 43.5157 7.51348 42.2142 6.88219 40.6914C6.2509 39.1685 6.08541 37.4927 6.40664 35.8758C6.72787 34.2588 7.5214 32.7735 8.68686 31.6076C9.85231 30.4417 11.3374 29.6476 12.9541 29.3258C14.5709 29.004 16.2469 29.1688 17.77 29.7995C19.293 30.4303 20.5949 31.4985 21.5108 32.8691C22.4267 34.2398 22.9156 35.8513 22.9156 37.4998C22.9131 39.7089 22.0347 41.8269 20.4729 43.3892C18.9111 44.9516 16.7935 45.8309 14.5844 45.8342ZM60.4156 68.7498C58.7672 68.7498 57.1559 68.261 55.7853 67.3452C54.4147 66.4294 53.3465 65.1278 52.7157 63.6049C52.0849 62.0819 51.9198 60.4062 52.2414 58.7895C52.563 57.1728 53.3568 55.6877 54.5223 54.5221C55.6879 53.3565 57.173 52.5628 58.7897 52.2412C60.4064 51.9196 62.0821 52.0847 63.6051 52.7155C65.128 53.3463 66.4296 54.4145 67.3454 55.7851C68.2612 57.1557 68.75 58.767 68.75 60.4154C68.7484 62.6253 67.8697 64.7442 66.3071 66.3069C64.7445 67.8695 62.6255 68.7481 60.4156 68.7498Z" fill="black"/>
</g>
<defs>
<clipPath id="clip0_13_228">
<rect width="75" height="75" fill="white"/>
</clipPath>
</defs>
</svg>
