<svg width="78" height="78" viewBox="0 0 78 78" fill="none" xmlns="http://www.w3.org/2000/svg">
<g clip-path="url(#clip0_13_230)">
<path d="M72.527 5.473C67.054 0 58.2433 0 40.625 0H37.375C19.7568 0 10.946 0 5.473 5.473C0 10.946 0 19.7568 0 37.375V40.625C0 58.2433 0 67.0508 5.473 72.527C10.946 78.0033 19.7568 78 37.375 78H40.625C58.2433 78 67.0508 78 72.527 72.527C78 67.054 78 58.2433 78 40.625V37.375C78 19.7568 78 10.946 72.527 5.473ZM63.3848 55.25H57.6973C55.5295 55.25 54.8925 53.521 51.0348 49.6632C47.658 46.41 46.2118 45.9875 45.37 45.9875C44.2228 45.9875 43.8815 46.3125 43.8815 47.9375V53.0368C43.8815 54.4342 43.4362 55.25 39.819 55.25C33.7935 55.25 27.17 51.5905 22.4673 44.8435C15.4148 34.9603 13.4875 27.4885 13.4875 25.9837C13.4875 25.1388 13.8125 24.375 15.4375 24.375H21.1283C22.581 24.375 23.127 25.012 23.673 26.585C26.455 34.6873 31.148 41.769 33.0752 41.769C33.7967 41.769 34.1283 41.4342 34.1283 39.6012V31.226C33.917 27.3715 31.8663 27.053 31.8663 25.6815C31.8663 25.0478 32.409 24.375 33.3125 24.375H42.2533C43.459 24.375 43.8783 25.0185 43.8783 26.4647V37.7325C43.8783 38.935 44.4015 39.3575 44.7622 39.3575C45.487 39.3575 46.0882 38.935 47.4142 37.609C51.5125 33.0297 54.405 25.9805 54.405 25.9805C54.769 25.1355 55.432 24.3717 56.8815 24.3717H62.569C64.2883 24.3717 64.6523 25.2558 64.2883 26.4615C63.5635 29.7765 56.6345 39.5363 56.6345 39.5363C56.03 40.5015 55.7895 40.9825 56.6345 42.068C57.239 42.913 59.2248 44.5998 60.5508 46.1662C62.9948 48.9157 64.8375 51.233 65.351 52.832C65.8255 54.4375 65.0098 55.25 63.3848 55.25Z" fill="black"/>
</g>
<defs>
<clipPath id="clip0_13_230">
<rect width="78" height="78" fill="white"/>
</clipPath>
</defs>
</svg>
