<svg width="39" height="38" viewBox="0 0 39 38" fill="none" xmlns="http://www.w3.org/2000/svg">
<g clip-path="url(#clip0_15_44)">
<path d="M36.2635 2.66633C33.527 0 29.1216 0 20.3125 0H18.6875C9.87838 0 5.473 0 2.7365 2.66633C0 5.33267 0 9.62508 0 18.2083V19.7917C0 28.3749 0 32.6658 2.7365 35.3337C5.473 38.0016 9.87838 38 18.6875 38H20.3125C29.1216 38 33.5254 38 36.2635 35.3337C39 32.6673 39 28.3749 39 19.7917V18.2083C39 9.62508 39 5.33267 36.2635 2.66633ZM31.6924 26.9167H28.8486C27.7647 26.9167 27.4463 26.0743 25.5174 24.1949C23.829 22.61 23.1059 22.4042 22.685 22.4042C22.1114 22.4042 21.9408 22.5625 21.9408 23.3542V25.8384C21.9408 26.5193 21.7181 26.9167 19.9095 26.9167C16.8967 26.9167 13.585 25.1338 11.2336 21.8468C7.70738 17.0319 6.74375 13.3918 6.74375 12.6588C6.74375 12.2471 6.90625 11.875 7.71875 11.875H10.5641C11.2905 11.875 11.5635 12.1853 11.8365 12.9517C13.2275 16.8989 15.574 20.349 16.5376 20.349C16.8984 20.349 17.0641 20.1859 17.0641 19.2929V15.2127C16.9585 13.3348 15.9331 13.1797 15.9331 12.5115C15.9331 12.2028 16.2045 11.875 16.6562 11.875H21.1266C21.7295 11.875 21.9391 12.1885 21.9391 12.8931V18.3825C21.9391 18.9683 22.2008 19.1742 22.3811 19.1742C22.7435 19.1742 23.0441 18.9683 23.7071 18.3223C25.7563 16.0914 27.2025 12.6572 27.2025 12.6572C27.3845 12.2455 27.716 11.8734 28.4408 11.8734H31.2845C32.1441 11.8734 32.3261 12.3041 32.1441 12.8915C31.7817 14.5065 28.3173 19.2612 28.3173 19.2612C28.015 19.7315 27.8948 19.9658 28.3173 20.4947C28.6195 20.9063 29.6124 21.7281 30.2754 22.4913C31.4974 23.8308 32.4188 24.9597 32.6755 25.7387C32.9128 26.5208 32.5049 26.9167 31.6924 26.9167Z" fill="white"/>
</g>
<defs>
<clipPath id="clip0_15_44">
<rect width="39" height="38" fill="white"/>
</clipPath>
</defs>
</svg>
