<svg width="78" height="78" viewBox="0 0 78 78" fill="none" xmlns="http://www.w3.org/2000/svg">
<g clip-path="url(#clip0_13_224)">
<path fill-rule="evenodd" clip-rule="evenodd" d="M66.5047 11.336C59.2052 4.03 49.5007 0.00325 39.1625 0C17.8587 0 0.519992 17.3355 0.510242 38.649C0.506992 45.461 2.28799 52.1105 5.67124 57.9735L0.185242 78L20.6732 72.6245C26.3185 75.7055 32.6755 77.3273 39.143 77.3305H39.1592C60.4597 77.3305 77.8017 59.9917 77.8115 38.6782C77.818 28.353 73.801 18.6388 66.5047 11.336ZM39.1625 70.8012H39.1495C33.384 70.8012 27.7322 69.251 22.7987 66.3227L21.6255 65.6273L9.46724 68.8155L12.714 56.9595L11.9502 55.744C8.73274 50.6285 7.03624 44.7168 7.03949 38.649C7.04599 20.9365 21.4597 6.526 39.1787 6.526C47.7587 6.526 55.8252 9.8735 61.8897 15.9445C67.9542 22.0188 71.292 30.0885 71.2887 38.6717C71.279 56.3908 56.8685 70.8012 39.1625 70.8012ZM56.784 46.7415C55.8187 46.2573 51.0705 43.9205 50.1832 43.5988C49.2992 43.277 48.6557 43.1145 48.009 44.0798C47.3622 45.045 45.5162 47.2225 44.9507 47.8693C44.3885 48.5127 43.823 48.594 42.8577 48.1098C41.8925 47.6255 38.779 46.6082 35.0902 43.316C32.2205 40.755 30.2802 37.5928 29.718 36.6242C29.1557 35.6558 29.6595 35.1357 30.1405 34.6548C30.576 34.2225 31.1057 33.527 31.59 32.9615C32.0775 32.4025 32.2367 31.9995 32.5617 31.3528C32.8835 30.7093 32.7242 30.1438 32.4805 29.6595C32.2367 29.1785 30.3062 24.4237 29.5035 22.49C28.7202 20.605 27.924 20.8617 27.3292 20.8325C26.767 20.8032 26.1235 20.8 25.4767 20.8C24.8332 20.8 23.7867 21.0405 22.9027 22.009C22.0187 22.9775 19.5227 25.3143 19.5227 30.0658C19.5227 34.8205 22.984 39.4128 23.465 40.0562C23.946 40.6997 30.2737 50.4562 39.962 54.639C42.2662 55.6335 44.0667 56.2282 45.4675 56.6735C47.7815 57.408 49.8875 57.304 51.5515 57.057C53.4072 56.7808 57.265 54.7202 58.071 52.4647C58.877 50.2092 58.877 48.2722 58.6332 47.8725C58.3927 47.4662 57.7492 47.2257 56.784 46.7415Z" fill="black"/>
</g>
<defs>
<clipPath id="clip0_13_224">
<rect width="78" height="78" fill="white"/>
</clipPath>
</defs>
</svg>
