<svg width="39" height="38" viewBox="0 0 39 38" fill="none" xmlns="http://www.w3.org/2000/svg">
<g clip-path="url(#clip0_15_49)">
<path fill-rule="evenodd" clip-rule="evenodd" d="M33.2524 5.52267C29.6027 1.96333 24.7504 0.00158333 19.5813 0C8.9294 0 0.260026 8.4455 0.255151 18.829C0.253526 22.1477 1.14403 25.3872 2.83565 28.2435L0.0926514 38L10.3367 35.3812C13.1593 36.8822 16.3378 37.6723 19.5715 37.6738H19.5797C30.2299 37.6738 38.9009 29.2268 38.9058 18.8433C38.909 13.813 36.9005 9.08042 33.2524 5.52267ZM19.5813 34.4929H19.5748C16.692 34.4929 13.8662 33.7377 11.3994 32.3111L10.8128 31.9723L4.73365 33.5255L6.35703 27.7495L5.97515 27.1573C4.3664 24.6652 3.51815 21.7851 3.51978 18.829C3.52303 10.1998 10.7299 3.17933 19.5894 3.17933C23.8794 3.17933 27.9127 4.81017 30.9449 7.76783C33.9771 10.7271 35.646 14.6585 35.6444 18.8401C35.6395 27.4724 28.4343 34.4929 19.5813 34.4929ZM28.392 22.7715C27.9094 22.5356 25.5353 21.3972 25.0917 21.2404C24.6497 21.0837 24.3279 21.0045 24.0045 21.4748C23.6812 21.945 22.7582 23.0058 22.4754 23.3209C22.1943 23.6344 21.9115 23.674 21.4289 23.4381C20.9463 23.2022 19.3895 22.7066 17.5452 21.1027C16.1103 19.855 15.1402 18.3144 14.859 17.8426C14.5779 17.3708 14.8298 17.1174 15.0703 16.8831C15.288 16.6725 15.5529 16.3337 15.795 16.0582C16.0388 15.7858 16.1184 15.5895 16.2809 15.2744C16.4418 14.9609 16.3622 14.6854 16.2403 14.4495C16.1184 14.2152 15.1532 11.8988 14.7518 10.9567C14.3602 10.0383 13.962 10.1634 13.6647 10.1492C13.3835 10.1349 13.0618 10.1333 12.7384 10.1333C12.4167 10.1333 11.8934 10.2505 11.4514 10.7223C11.0094 11.1942 9.7614 12.3326 9.7614 14.6474C9.7614 16.9638 11.492 19.2011 11.7325 19.5146C11.973 19.8281 15.1369 24.5813 19.981 26.619C21.1332 27.1035 22.0334 27.3932 22.7338 27.6102C23.8908 27.968 24.9438 27.9173 25.7758 27.797C26.7037 27.6624 28.6325 26.6586 29.0355 25.5597C29.4385 24.4609 29.4385 23.5173 29.3167 23.3225C29.1964 23.1246 28.8747 23.0074 28.392 22.7715Z" fill="white"/>
</g>
<defs>
<clipPath id="clip0_15_49">
<rect width="39" height="38" fill="white"/>
</clipPath>
</defs>
</svg>
